<svg xmlns="http://www.w3.org/2000/svg" width="256" height="256" viewBox="0 0 100 100"><rect width="100" height="100" rx="50" fill="#020c1b"></rect><path fill="#e8e8e8" d="M34.54 62.84L34.54 62.84Q34.54 59.69 32.32 58.00Q30.09 56.31 24.30 54.43Q18.51 52.56 15.14 50.74L15.14 50.74Q5.93 45.77 5.93 37.35L5.93 37.35Q5.93 32.97 8.40 29.53Q10.87 26.10 15.49 24.17Q20.11 22.24 25.86 22.24L25.86 22.24Q31.65 22.24 36.18 24.34Q40.70 26.44 43.21 30.26Q45.71 34.08 45.71 38.94L45.71 38.94L34.58 38.94Q34.58 35.23 32.24 33.17Q29.91 31.11 25.67 31.11L25.67 31.11Q21.59 31.11 19.33 32.84Q17.07 34.56 17.07 37.38L17.07 37.38Q17.07 40.02 19.72 41.80Q22.37 43.58 27.53 45.14L27.53 45.14Q37.03 48.00 41.37 52.23Q45.71 56.46 45.71 62.77L45.71 62.77Q45.71 69.78 40.41 73.77Q35.10 77.76 26.12 77.76L26.12 77.76Q19.89 77.76 14.76 75.48Q9.64 73.19 6.95 69.22Q4.26 65.25 4.26 60.02L4.26 60.02L15.43 60.02Q15.43 68.96 26.12 68.96L26.12 68.96Q30.09 68.96 32.32 67.35Q34.54 65.73 34.54 62.84ZM84.53 59.02L95.66 59.02Q95.03 67.74 89.22 72.75Q83.42 77.76 73.92 77.76L73.92 77.76Q63.53 77.76 57.57 70.76Q51.61 63.77 51.61 51.56L51.61 51.56L51.61 48.26Q51.61 40.46 54.36 34.53Q57.11 28.59 62.21 25.42Q67.31 22.24 74.07 22.24L74.07 22.24Q83.42 22.24 89.13 27.25Q94.85 32.26 95.74 41.32L95.74 41.32L84.60 41.32Q84.20 36.08 81.69 33.73Q79.19 31.37 74.07 31.37L74.07 31.37Q68.50 31.37 65.73 35.36Q62.97 39.35 62.90 47.74L62.90 47.74L62.90 51.82Q62.90 60.58 65.55 64.62Q68.20 68.67 73.92 68.67L73.92 68.67Q79.08 68.67 81.62 66.31Q84.16 63.95 84.53 59.02L84.53 59.02Z"></path></svg>