<svg xmlns="http://www.w3.org/2000/svg" width="256" height="256" viewBox="0 0 100 100"><rect width="100" height="100" rx="50" fill="#18185c"></rect><path fill="#fff" d="M34.75 62.67L34.75 62.67Q34.75 59.56 32.55 57.89Q30.35 56.23 24.64 54.38Q18.93 52.53 15.59 50.73L15.59 50.73Q6.51 45.83 6.51 37.51L6.51 37.51Q6.51 33.19 8.95 29.80Q11.38 26.42 15.94 24.51Q20.50 22.61 26.18 22.61L26.18 22.61Q31.89 22.61 36.36 24.68Q40.83 26.75 43.30 30.52Q45.77 34.29 45.77 39.09L45.77 39.09L34.78 39.09Q34.78 35.42 32.48 33.39Q30.17 31.36 25.99 31.36L25.99 31.36Q21.97 31.36 19.73 33.06Q17.50 34.77 17.50 37.55L17.50 37.55Q17.50 40.15 20.12 41.91Q22.74 43.66 27.83 45.20L27.83 45.20Q37.20 48.02 41.49 52.20Q45.77 56.37 45.77 62.60L45.77 62.60Q45.77 69.52 40.53 73.46Q35.30 77.39 26.43 77.39L26.43 77.39Q20.28 77.39 15.23 75.14Q10.17 72.89 7.52 68.97Q4.86 65.05 4.86 59.89L4.86 59.89L15.89 59.89Q15.89 68.71 26.43 68.71L26.43 68.71Q30.35 68.71 32.55 67.12Q34.75 65.53 34.75 62.67ZM84.08 58.90L95.06 58.90Q94.44 67.50 88.71 72.45Q82.98 77.39 73.60 77.39L73.60 77.39Q63.35 77.39 57.47 70.49Q51.59 63.59 51.59 51.54L51.59 51.54L51.59 48.28Q51.59 40.59 54.30 34.73Q57.01 28.87 62.05 25.74Q67.08 22.61 73.75 22.61L73.75 22.61Q82.98 22.61 88.62 27.55Q94.26 32.50 95.14 41.43L95.14 41.43L84.15 41.43Q83.75 36.27 81.27 33.94Q78.80 31.62 73.75 31.62L73.75 31.62Q68.26 31.62 65.53 35.55Q62.80 39.49 62.73 47.77L62.73 47.77L62.73 51.79Q62.73 60.44 65.34 64.43Q67.96 68.42 73.60 68.42L73.60 68.42Q78.69 68.42 81.20 66.09Q83.71 63.77 84.08 58.90L84.08 58.90Z"></path></svg>