<?xml version="1.0" standalone="no"?>
<!DOCTYPE svg PUBLIC "-//W3C//DTD SVG 20010904//EN"
 "http://www.w3.org/TR/2001/REC-SVG-20010904/DTD/svg10.dtd">
<svg version="1.0" xmlns="http://www.w3.org/2000/svg"
 width="700.000000pt" height="700.000000pt" viewBox="0 0 700.000000 700.000000"
 preserveAspectRatio="xMidYMid meet">
<metadata>
Created by potrace 1.14, written by Peter Selinger 2001-2017
</metadata>
<g transform="translate(0.000000,700.000000) scale(0.100000,-0.100000)"
fill="#000000" stroke="none">
<path d="M3280 6993 c-19 -1 -87 -8 -150 -14 -911 -86 -1788 -566 -2369 -1297
-707 -888 -940 -2076 -620 -3168 83 -287 236 -627 389 -872 157 -251 395 -535
609 -729 558 -504 1225 -804 1986 -893 155 -18 460 -24 620 -11 496 39 904
152 1330 366 216 109 340 185 528 326 714 536 1199 1330 1346 2204 37 219 46
336 46 595 0 258 -9 377 -46 593 -93 551 -318 1072 -658 1522 -666 880 -1709
1393 -2811 1383 -91 -1 -181 -3 -200 -5z m-1240 -1564 c643 -79 1083 -464
1149 -1004 6 -49 11 -105 11 -122 l0 -33 -390 0 -390 0 0 38 c0 60 -28 172
-57 232 -57 117 -201 224 -353 261 -85 21 -367 19 -450 -4 -206 -56 -339 -186
-359 -353 -32 -268 135 -409 711 -599 391 -128 587 -214 783 -343 110 -73 242
-194 312 -287 63 -83 128 -221 160 -340 23 -89 26 -119 27 -265 0 -137 -4
-180 -22 -254 -110 -444 -503 -724 -1103 -787 -136 -14 -467 -6 -585 15 -195
34 -362 88 -528 172 -394 199 -625 535 -653 952 l-6 92 390 0 390 0 7 -80 c27
-326 226 -502 611 -541 474 -48 770 157 717 497 -36 232 -179 333 -737 524
-132 45 -288 101 -346 125 -503 206 -779 459 -880 807 -27 93 -37 306 -19 414
75 470 499 802 1126 883 99 12 385 13 484 0z m3417 -4 c579 -75 988 -399 1162
-920 29 -88 63 -239 76 -342 l7 -53 -389 0 -389 0 -13 93 c-44 316 -182 492
-448 569 -69 20 -100 23 -268 23 -180 0 -194 -2 -266 -27 -271 -96 -428 -317
-493 -695 -41 -240 -47 -820 -11 -1083 69 -511 264 -747 654 -791 76 -9 129
-9 209 -1 395 41 566 214 627 635 l6 37 384 0 385 0 0 -37 c0 -107 -54 -332
-111 -467 -115 -272 -336 -504 -612 -643 -100 -50 -283 -109 -422 -135 -103
-19 -154 -22 -360 -23 -211 0 -254 3 -352 23 -308 62 -538 186 -742 398 -258
267 -409 622 -463 1089 -17 148 -17 706 0 845 44 357 144 644 309 895 122 184
332 369 533 470 132 66 338 126 515 148 82 11 365 6 472 -8z"/>
</g>
</svg>
