<?xml version="1.0" standalone="no"?>
<!DOCTYPE svg PUBLIC "-//W3C//DTD SVG 20010904//EN"
 "http://www.w3.org/TR/2001/REC-SVG-20010904/DTD/svg10.dtd">
<svg version="1.0" xmlns="http://www.w3.org/2000/svg"
 width="700.000000pt" height="700.000000pt" viewBox="0 0 700.000000 700.000000"
 preserveAspectRatio="xMidYMid meet">
<metadata>
Created by potrace 1.14, written by Peter Selinger 2001-2017
</metadata>
<g transform="translate(0.000000,700.000000) scale(0.100000,-0.100000)"
fill="#000000" stroke="none">
<path d="M3360 6994 c-337 -17 -668 -77 -960 -174 -984 -326 -1774 -1073
-2153 -2035 -420 -1064 -288 -2287 350 -3237 178 -266 495 -609 733 -792 278
-216 640 -420 936 -530 796 -294 1674 -294 2464 -1 248 92 590 274 803 427
368 265 696 614 937 998 94 150 246 460 308 630 288 784 288 1656 0 2440 -93
255 -274 596 -430 813 -163 226 -442 523 -643 683 -542 433 -1151 686 -1825
758 -142 15 -410 25 -520 20z m-1380 -1555 c437 -40 791 -214 1001 -491 134
-179 219 -417 219 -615 l0 -63 -389 0 -390 0 -6 48 c-21 167 -56 250 -140 334
-65 66 -147 111 -252 140 -102 28 -342 30 -445 5 -223 -55 -361 -194 -375
-379 -19 -253 164 -396 752 -583 742 -236 1097 -515 1216 -955 21 -75 23 -107
23 -275 0 -164 -3 -201 -22 -270 -113 -411 -475 -682 -1012 -759 -559 -79
-1107 49 -1462 343 -133 110 -226 230 -299 385 -47 101 -87 249 -94 350 -3 39
-8 88 -11 109 l-4 37 394 0 c442 0 406 7 406 -78 1 -117 60 -267 137 -347 96
-98 205 -150 384 -181 118 -20 373 -15 462 10 141 39 254 123 304 224 26 53
28 66 28 177 0 104 -3 127 -23 170 -37 80 -72 124 -136 170 -116 81 -238 135
-566 247 -499 171 -755 302 -950 485 -160 150 -248 297 -297 498 -26 107 -23
324 5 439 44 177 135 330 273 461 284 268 777 409 1269 364z m3376 1 c554 -45
969 -303 1189 -740 69 -136 146 -408 157 -555 l3 -40 -392 -3 -392 -2 -6 47
c-33 254 -111 427 -234 517 -118 87 -240 123 -446 132 -462 21 -709 -215 -802
-764 -15 -92 -18 -169 -18 -542 0 -407 2 -443 23 -565 26 -151 78 -313 129
-405 56 -100 163 -201 264 -249 122 -58 219 -75 398 -68 170 6 266 28 371 83
167 88 282 282 306 520 l7 64 394 0 395 0 -7 -62 c-10 -97 -42 -246 -70 -333
-151 -461 -536 -785 -1050 -885 -449 -86 -924 -17 -1229 178 -427 273 -672
734 -727 1369 -16 190 -7 735 16 873 52 327 163 617 317 834 130 185 323 349
523 447 265 128 544 176 881 149z"/>
</g>
</svg>
